HIERARCHY
ROOT Hips
{
	OFFSET 0.00000 0.00000 0.00000
	CHANNELS 6 Xposition Yposition Zposition Yrotation Zrotation Xrotation 
	JOINT Lumbar
	{
		OFFSET 0 0 0
		CHANNELS 3 Zrotation Xrotation Yrotation
		JOINT Neck
		{
			OFFSET 0.00 0.2701 0.00
			CHANNELS 3 Zrotation Xrotation Yrotation
			End Site
			{
				OFFSET 0.00 0.1379 0.00
			}
		}
		JOINT RightShoulder
		{
			OFFSET 0.0119 0.2289 0.1181
			CHANNELS 3 Zrotation Xrotation Yrotation
			JOINT RightElbow
			{
				OFFSET 0.00 -0.1475 0.00
				CHANNELS 2 Zrotation Yrotation
				JOINT RightWrist
				{
					OFFSET 0.00 -0.1605 0.00
					CHANNELS 2 Zrotation Xrotation
					End Site
					{
						OFFSET 0.0040 -0.1068 0.0006
					}
				}
			}
		}
		JOINT LeftShoulder
		{
			OFFSET 0.0119 0.2289 -0.1181
			CHANNELS 3 Zrotation Xrotation Yrotation
			JOINT LeftElbow
			{
				OFFSET 0.00 -0.1475 0.00
				CHANNELS 2 Zrotation Yrotation
				JOINT LeftWrist
				{
					OFFSET 0.00 -0.1605 0.00
					CHANNELS 2 Zrotation Xrotation
					End Site
					{
						OFFSET 0.0040 -0.1068 -0.0006
					}
				}
			}
		}
	}
	JOINT RightHip
	{
		OFFSET 0.0316 -0.0424 0.0458
		CHANNELS 3 Zrotation Xrotation Yrotation
		JOINT RightKnee
		{
			OFFSET 0.00 -0.2438 0.00
			CHANNELS 1 Zrotation
			JOINT RightAnkle
			{
				OFFSET 0.00 -0.2449 0.00
				CHANNELS 3 Zrotation Xrotation Yrotation
				End Site
				{
					OFFSET 0.1237 -0.0542 0.0051
				}
			}
		}
	}
	JOINT LeftHip
	{
		OFFSET 0.0316 -0.0424 -0.0458
		CHANNELS 3 Zrotation Xrotation Yrotation
		JOINT LeftKnee
		{
			OFFSET 0.00 -0.2438 0.00
			CHANNELS 1 Zrotation
			JOINT LeftAnkle
			{
				OFFSET 0.00 -0.2449 0.00
				CHANNELS 3 Zrotation Xrotation Yrotation
				End Site
				{
					OFFSET 0.1237 -0.0542 -0.0051
				}
			}
		}
	}
}
MOTION
Frames: 29
Frame Time: 0.02
-0 0.57926 0 183.04271 0 -4.25233 7.92268 2.20308 -3.55483 -27.8861 5.14968 2.40881 25.73383 -17.89165 14.60591 12.18924 81.81605 -1.42642 -4.85401 23.38667 8.54712 -14.8355 10.49856 -80.70018 -3.63399 3.75764 -5.91536 5.10665 -4.13045 -5.14196 -11.26444 -2.61762 -8.43621 -7.60246 6.75253 17.33733 -1.05249 -6.87803 2.65144 3.27921
0.0004 0.57947 -0.00084 183.19506 0 -4.22523 7.82653 2.2842 -3.54542 -27.88547 5.34628 2.56825 25.76009 -18.21066 14.58921 12.2316 81.84668 -1.4216 -4.84991 23.41296 8.17686 -13.73552 10.30416 -80.58029 -3.57123 3.63875 -5.80161 5.16107 -4.15571 -5.30068 -11.32438 -2.61711 -8.56611 -7.41189 6.81262 17.02275 -1.2508 -6.97396 2.65984 3.59637
0.00081 0.57967 -0.00168 183.34769 0 -4.19809 7.72684 2.36487 -3.53624 -27.88144 5.54405 2.72693 25.78536 -18.5307 14.57644 12.27389 81.87734 -1.41691 -4.84593 23.43932 7.80654 -12.64303 10.11029 -80.46111 -3.50843 3.52015 -5.6864 5.21499 -4.18153 -5.46009 -11.38387 -2.6165 -8.69639 -7.21949 6.87251 16.71 -1.45053 -7.06914 2.66817 3.91036
0.00126 0.57988 -0.00251 183.50246 0 -4.1704 7.61852 2.44427 -3.5265 -27.87004 5.74568 2.88314 25.80899 -18.85455 14.57333 12.31541 81.9083 -1.41196 -4.84183 23.46829 7.43531 -11.56691 9.91545 -80.34347 -3.44389 3.40005 -5.56652 5.26752 -4.20867 -5.62334 -11.44144 -2.6158 -8.82909 -7.02089 6.93208 16.40343 -1.65628 -7.16166 2.67636 4.21366
0.0015 0.58009 -0.00339 183.6453 0 -4.14547 7.56375 2.53009 -3.51807 -27.90531 5.9236 3.05128 25.84387 -19.15417 14.51194 12.35992 81.93751 -1.40755 -4.83769 23.48607 7.07233 -10.40059 9.72425 -80.21751 -3.3874 3.28608 -5.47415 5.3275 -4.22749 -5.76559 -11.50836 -2.61595 -8.94853 -6.85876 6.99324 16.06641 -1.82818 -7.26758 2.68533 4.57224
0.00221 0.58029 -0.00415 183.81363 0 -4.11483 7.39046 2.60242 -3.50799 -27.83664 6.15371 3.19479 25.85319 -19.5075 14.57867 12.39878 81.97052 -1.40257 -4.83411 23.5257 6.68994 -9.42862 9.52657 -80.10939 -3.31473 3.16051 -5.32179 5.37163 -4.26478 -5.95257 -11.556 -2.61407 -9.09619 -6.6172 7.05105 15.79257 -2.07285 -7.34551 2.69262 4.81445
0.00415 0.58045 -0.00457 184.05595 0 -4.0662 6.91621 2.63702 -3.48302 -27.50977 6.52014 3.26398 25.80266 -19.99989 14.97309 12.41707 82.01433 -1.39105 -4.82853 23.64222 6.26224 -8.96672 9.29688 -80.04915 -3.18723 2.98801 -5.00857 5.37196 -4.34751 -6.27005 -11.54463 -2.6084 -9.32668 -6.16168 7.10028 15.70509 -2.52153 -7.34145 2.6956 4.7229
0.00659 0.5806 -0.00487 184.32341 0 -4.01221 6.31604 2.65828 -3.4579 -27.07074 6.94048 3.30861 25.72336 -20.54775 15.50149 12.43086 82.06205 -1.3799 -4.82443 23.77667 5.81396 -8.70609 9.06357 -80.00769 -3.04522 2.80663 -4.63305 5.35634 -4.44937 -6.63234 -11.51465 -2.6004 -9.58527 -5.62431 7.14609 15.67894 -3.04355 -7.30995 2.69687 4.51627
0.00886 0.58075 -0.00521 184.57755 0 -3.96201 5.75688 2.6858 -3.44 -26.6658 7.3425 3.36987 25.65138 -21.07821 15.98687 12.44963 82.10776 -1.37172 -4.82158 23.89387 5.36782 -8.3693 8.84005 -79.95772 -2.91618 2.63844 -4.28316 5.34801 -4.54698 -6.96925 -11.49716 -2.59222 -9.82776 -5.12048 7.19309 15.61713 -3.53067 -7.29411 2.69866 4.37001
0.01089 0.58091 -0.00558 184.84044 0 -3.9059 5.26995 2.71182 -3.3934 -26.33858 7.72095 3.41192 25.60756 -21.57986 16.39924 12.45492 82.15415 -1.35009 -4.80947 24.05452 4.94795 -7.96526 8.57973 -79.90526 -2.75986 2.43048 -3.94672 5.33934 -4.62839 -7.32491 -11.46342 -2.58903 -10.08317 -4.63277 7.24153 15.58895 -4.02456 -7.26498 2.70136 4.18887
0.01355 0.58105 -0.00587 185.0901 0 -3.86104 4.59801 2.73863 -3.40467 -25.81478 8.15811 3.48328 25.4934 -22.1494 16.99244 12.48859 82.20045 -1.3568 -4.81844 24.1226 4.47378 -7.75251 8.39827 -79.86545 -2.65736 2.30468 -3.56483 5.32779 -4.74484 -7.65514 -11.45814 -2.5752 -10.31973 -4.09128 7.28626 15.50437 -4.5215 -7.2568 2.70195 4.05404
0.01773 0.58117 -0.00599 185.30546 0 -3.84663 3.48442 2.76336 -3.59173 -24.84367 8.77169 3.68314 25.23357 -22.93899 18.07942 12.59057 82.24317 -1.44005 -4.87318 23.98491 3.809 -7.98872 8.40942 -79.83051 -2.70384 2.39624 -3.09449 5.31051 -4.98127 -7.87963 -11.54402 -2.52991 -10.48563 -3.42632 7.32081 15.25648 -5.01305 -7.31496 2.69551 4.0671
0.02256 0.58127 -0.00604 185.5051 0 -3.84402 2.18114 2.7905 -3.834 -23.66556 9.43736 3.90557 24.89627 -23.78666 19.33912 12.72369 82.2868 -1.55243 -4.95152 23.74334 3.09884 -8.41563 8.50515 -79.8125 -2.806 2.57339 -2.576 5.2912 -5.24713 -8.0821 -11.65756 -2.47448 -10.63368 -2.70834 7.35189 14.94806 -5.50548 -7.39473 2.68732 4.1324
0.02715 0.58135 -0.00612 185.70644 0 -3.83732 0.94032 2.82178 -4.04061 -22.53797 10.06112 4.09043 24.5671 -24.5772 20.50138 12.84941 82.3307 -1.6521 -5.02669 23.51377 2.43937 -8.7755 8.57887 -79.80336 -2.88421 2.71851 -2.06583 5.27395 -5.48116 -8.31012 -11.75331 -2.42545 -10.7977 -2.01233 7.38502 14.66283 -5.99337 -7.46359 2.681 4.17898
0.03149 0.58152 -0.00617 185.9316 0 -3.82525 -0.20192 2.8315 -4.29207 -21.59165 10.76372 4.38981 24.35093 -25.49838 21.74662 12.94506 82.36903 -1.74816 -5.06917 23.43345 1.6521 -9.06143 8.58205 -79.72466 -2.95446 2.83264 -1.61269 5.25138 -5.79359 -8.47194 -11.87091 -2.36884 -10.92993 -1.32562 7.41595 14.3991 -6.49674 -7.53649 2.67006 4.19983
0.03652 0.58151 -0.00629 186.10313 0 -3.82697 -1.59627 2.88559 -4.46294 -20.21843 11.31384 4.45624 23.88178 -26.16182 22.86042 13.11257 82.42269 -1.86038 -5.1864 23.01739 1.1207 -9.54168 8.75359 -79.79499 -3.0569 3.03387 -1.02771 5.23956 -5.94968 -8.7685 -11.94924 -2.32555 -11.12328 -0.60401 7.45078 14.07403 -6.97282 -7.60598 2.66837 4.28883
0.0432 0.58104 -0.00663 186.13019 0 -3.86634 -3.61131 3.073 -4.40047 -17.7328 11.4293 3.87502 22.73135 -26.08827 23.55015 13.45601 82.49386 -1.99741 -5.49451 21.70107 1.30578 -10.53162 9.35829 -80.27675 -3.21768 3.43552 -0.11102 5.25858 -5.66561 -9.42023 -11.91687 -2.32254 -11.49364 0.16689 7.49657 13.60504 -7.32486 -7.66448 2.69237 4.5481
0.05058 0.58039 -0.00706 186.10398 0 -3.91888 -5.8782 3.303 -4.25462 -14.82359 11.38946 3.05882 21.33079 -25.75538 24.1046 13.87356 82.58906 -2.15341 -5.87835 20.05153 1.75033 -11.70602 10.13143 -80.91198 -3.41353 3.92461 0.94034 5.2885 -5.22382 -10.21259 -11.84291 -2.33319 -11.92515 0.97736 7.54651 13.07368 -7.65856 -7.7179 2.72582 4.87568
0.05769 0.5798 -0.00747 186.10186 0 -3.96359 -8.04832 3.50598 -4.14505 -12.09693 11.42094 2.34913 20.04433 -25.54791 24.73253 14.26686 82.6842 -2.30736 -6.23451 18.5517 2.07689 -12.7818 10.83489 -81.46798 -3.60275 4.38737 1.94306 5.31299 -4.85434 -10.95457 -11.78562 -2.3368 -12.32613 1.7913 7.5951 12.56414 -8.03146 -7.77176 2.75506 5.17594
0.06459 0.5793 -0.0078 186.09866 0 -4.01584 -10.15089 3.74104 -4.04375 -9.39972 11.45088 1.64001 18.7479 -25.30953 25.31542 14.62116 82.71683 -2.4291 -6.56505 17.04967 2.40188 -13.92612 11.51287 -82.04447 -3.74898 4.80009 2.89395 5.33919 -4.48122 -11.63738 -11.74023 -2.34316 -12.73854 2.51528 7.64151 12.08184 -8.27215 -7.83563 2.78371 5.46225
0.0721 0.57856 -0.00831 186.08657 0 -4.05616 -12.45094 3.91982 -3.90528 -6.54988 11.44676 0.87536 17.42065 -25.07447 25.95833 15.07423 82.90629 -2.62895 -6.96413 15.48179 2.79271 -14.96982 12.28212 -82.63976 -3.99941 5.33219 3.98477 5.36475 -4.08037 -12.47872 -11.6579 -2.34767 -13.14131 3.43693 7.69326 11.52654 -8.78633 -7.87544 2.81609 5.79314
0.08116 0.57726 -0.00928 186.05142 0 -4.05349 -15.23724 3.92829 -3.67905 -3.32968 11.3835 0.00057 16.0139 -24.9006 26.79345 15.77859 83.33783 -2.97899 -7.55523 13.75365 3.29967 -15.68137 13.26723 -83.0253 -4.46622 6.21096 5.42428 5.38254 -3.62087 -13.71164 -11.49916 -2.33993 -13.50658 4.88141 7.76077 10.80564 -10.04071 -7.86425 2.85459 6.23007
0.09081 0.57569 -0.01042 186.01111 0 -4.03949 -18.21115 3.87918 -3.41883 0.0166 11.29155 -0.91883 14.59703 -24.7409 27.69356 16.57995 83.95669 -3.41703 -8.20853 11.98428 3.86482 -16.28541 14.33646 -83.46068 -5.04639 7.19937 7.00111 5.39955 -3.14344 -15.10272 -11.30117 -2.33082 -13.85873 6.52601 7.8332 10.01084 -11.5756 -7.82586 2.89693 6.70886
0.10019 0.57421 -0.01149 185.98121 0 -4.03517 -21.09779 3.85972 -3.17778 3.27222 11.21458 -1.80933 13.21976 -24.58186 28.56798 17.33936 84.6166 -3.85601 -8.81933 10.27133 4.4047 -16.94448 15.36411 -84.02716 -5.61776 8.11178 8.51725 5.41956 -2.68659 -16.42773 -11.11151 -2.32461 -14.21506 8.08695 7.90202 9.23537 -12.99358 -7.79104 2.93871 7.16905
0.10962 0.57292 -0.01255 185.91659 0 -4.01252 -24.00591 3.82822 -2.91902 6.69195 11.12433 -2.74695 11.67986 -24.38368 29.42343 18.0937 84.76213 -4.12761 -9.49311 8.38016 4.94767 -17.58657 16.41405 -83.97267 -6.01719 9.13728 10.02871 5.43033 -2.1684 -17.72834 -10.96256 -2.3084 -14.58355 9.61706 7.97663 8.5139 -14.36221 -7.79488 2.97562 7.63175
0.11907 0.57114 -0.01366 185.92223 0 -4.02476 -26.9054 3.80609 -2.68905 9.7838 11.05656 -3.59078 10.48718 -24.27396 30.33321 18.87899 86.00125 -4.76253 -10.04921 6.86407 5.49585 -18.23291 17.43256 -85.19286 -6.79225 9.95277 11.58348 5.4581 -1.77998 -19.12152 -10.71751 -2.31357 -14.91967 11.26027 8.04052 7.66819 -15.90561 -7.70966 3.02368 8.09593
0.12853 0.56819 -0.01484 186.1367 0 -4.13948 -29.7766 3.83628 -2.55743 12.02551 11.06206 -4.1902 10.19218 -24.40501 31.39668 19.73943 90.40288 -6.42972 -10.26707 6.31631 6.03217 -18.94143 18.36547 -90.16356 -8.65265 10.15491 13.20038 5.54892 -1.71842 -20.67989 -10.23851 -2.36926 -15.19636 13.15061 8.07131 6.45518 -17.81927 -7.40326 3.10002 8.57353
0.13798 0.56473 -0.01605 186.41986 0 -4.28887 -32.62276 3.87541 -2.45487 13.91416 11.09134 -4.68729 10.25996 -24.62627 32.50892 20.62445 95.86299 -8.44956 -10.36357 6.16348 6.57223 -19.65136 19.25825 -96.3679 -10.87204 10.14246 14.85986 5.65361 -1.7951 -22.33504 -9.66041 -2.4481 -15.4358 15.15058 8.09137 5.12795 -19.90723 -7.00484 3.18783 9.04727
0.1474 0.56141 -0.01723 186.66286 0 -4.4203 -35.45299 3.90205 -2.33191 15.90647 11.10759 -5.2139 10.20485 -24.80705 33.58746 21.4894 100.71509 -10.27519 -10.51407 5.88251 7.1177 -20.34532 20.15507 -101.84912 -12.87817 10.23247 16.51484 5.74177 -1.83338 -23.979 -9.11338 -2.52214 -15.67425 17.11095 8.11809 3.88101 -21.94437 -6.63667 3.27118 9.50946
